<svg width="180" height="180" viewBox="0 0 180 180" fill="none" xmlns="http://www.w3.org/2000/svg">
<path fill-rule="evenodd" clip-rule="evenodd" d="M135 7.19999H8.99998C8.00587 7.19999 7.19998 8.00587 7.19998 8.99998V171C7.19998 171.994 8.00587 172.8 8.99998 172.8H135C135.994 172.8 136.8 171.994 136.8 171V8.99998C136.8 8.00587 135.994 7.19999 135 7.19999ZM8.99998 0C4.02943 0 0 4.02943 0 8.99998V171C0 175.97 4.02943 180 8.99998 180H135C139.97 180 144 175.97 144 171V8.99998C144 4.02943 139.97 0 135 0H8.99998Z" fill="url(#paint0_linear_713_4)"/>
<path fill-rule="evenodd" clip-rule="evenodd" d="M171 21.5999H163.8V158.4H171C171.994 158.4 172.8 157.594 172.8 156.6V23.3999C172.8 22.4058 171.994 21.5999 171 21.5999ZM156.6 14.3999V165.6H171C175.971 165.6 180 161.57 180 156.6V23.3999C180 18.4293 175.971 14.3999 171 14.3999H156.6Z" fill="url(#paint1_linear_713_4)"/>
<path fill-rule="evenodd" clip-rule="evenodd" d="M154.8 14.3999H144V165.6H154.8C155.794 165.6 156.6 164.794 156.6 163.8V16.1999C156.6 15.2058 155.794 14.3999 154.8 14.3999ZM136.8 7.19995V172.8H154.8C159.77 172.8 163.8 168.77 163.8 163.8V16.1999C163.8 11.2294 159.77 7.19995 154.8 7.19995H136.8Z" fill="url(#paint2_linear_713_4)"/>
<path fill-rule="evenodd" clip-rule="evenodd" d="M71.9999 105.3C92.8762 105.3 109.8 88.3762 109.8 67.4999C109.8 46.6236 92.8762 29.7 71.9999 29.7C51.1236 29.7 34.2 46.6236 34.2 67.4999C34.2 88.3762 51.1236 105.3 71.9999 105.3ZM71.9999 112.5C96.8527 112.5 117 92.3527 117 67.4999C117 42.6471 96.8527 22.5 71.9999 22.5C47.1471 22.5 27 42.6471 27 67.4999C27 92.3527 47.1471 112.5 71.9999 112.5Z" fill="url(#paint3_linear_713_4)"/>
<path fill-rule="evenodd" clip-rule="evenodd" d="M81.47 96.0997C84.9436 89.1524 87.2999 79.0509 87.2999 67.4999C87.2999 55.9489 84.9436 45.8474 81.47 38.9001C77.781 31.5221 74.0168 29.7 72 29.7C69.9831 29.7 66.2189 31.5221 62.5299 38.9001C59.0563 45.8474 56.7 55.9489 56.7 67.4999C56.7 79.0509 59.0563 89.1524 62.5299 96.0997C66.2189 103.478 69.9831 105.3 72 105.3C74.0168 105.3 77.781 103.478 81.47 96.0997ZM72 112.5C84.4263 112.5 94.4999 92.3527 94.4999 67.4999C94.4999 42.6471 84.4263 22.5 72 22.5C59.5736 22.5 49.5 42.6471 49.5 67.4999C49.5 92.3527 59.5736 112.5 72 112.5Z" fill="url(#paint4_linear_713_4)"/>
<path d="M59.0726 150.586C57.4226 150.586 55.9566 150.303 54.6748 149.737C53.3998 149.164 52.3976 148.377 51.668 147.375C50.9385 146.372 50.5703 145.22 50.5635 143.918H56.2907C56.2976 144.32 56.4203 144.681 56.6589 145.002C56.9044 145.316 57.2385 145.561 57.6612 145.738C58.0839 145.916 58.568 146.004 59.1135 146.004C59.6385 146.004 60.1021 145.912 60.5044 145.728C60.9066 145.537 61.2203 145.275 61.4453 144.941C61.6703 144.606 61.7794 144.225 61.7725 143.795C61.7794 143.372 61.6498 142.997 61.3839 142.67C61.1248 142.343 60.76 142.087 60.2896 141.903C59.8191 141.719 59.2771 141.627 58.6635 141.627H56.5362V137.7H58.6635C59.2294 137.7 59.7271 137.608 60.1566 137.424C60.593 137.239 60.9305 136.984 61.1691 136.656C61.4146 136.329 61.5339 135.954 61.5271 135.531C61.5339 135.122 61.435 134.761 61.2305 134.447C61.026 134.134 60.7396 133.888 60.3714 133.711C60.01 133.534 59.5907 133.445 59.1135 133.445C58.5953 133.445 58.1316 133.537 57.7226 133.721C57.3203 133.905 57.0032 134.161 56.7714 134.488C56.5396 134.816 56.4203 135.191 56.4135 135.613H50.9726C50.9794 134.331 51.3305 133.2 52.026 132.218C52.7282 131.236 53.6896 130.466 54.9101 129.907C56.1305 129.347 57.5316 129.068 59.1135 129.068C60.6612 129.068 62.0282 129.33 63.2146 129.855C64.4078 130.38 65.3384 131.103 66.0066 132.024C66.6816 132.937 67.0157 133.984 67.0089 135.163C67.0225 136.336 66.6203 137.297 65.8021 138.047C64.9907 138.797 63.9612 139.241 62.7135 139.377V139.541C64.4044 139.725 65.6759 140.243 66.5282 141.095C67.3805 141.941 67.7998 143.004 67.7862 144.286C67.793 145.513 67.4248 146.601 66.6816 147.549C65.9453 148.496 64.9191 149.239 63.6032 149.778C62.2941 150.317 60.7839 150.586 59.0726 150.586Z" fill="url(#paint5_linear_713_4)"/>
<path d="M72.8717 150.627C72.0808 150.627 71.4024 150.351 70.8364 149.799C70.2774 149.239 70.0012 148.561 70.008 147.763C70.0012 146.986 70.2774 146.321 70.8364 145.769C71.4024 145.217 72.0808 144.941 72.8717 144.941C73.6217 144.941 74.283 145.217 74.8558 145.769C75.4353 146.321 75.7285 146.986 75.7353 147.763C75.7285 148.295 75.5887 148.779 75.316 149.216C75.0501 149.645 74.7023 149.989 74.2728 150.249C73.8433 150.501 73.3762 150.627 72.8717 150.627Z" fill="url(#paint6_linear_713_4)"/>
<path d="M86.9572 150.872C85.0549 150.866 83.4117 150.426 82.0276 149.553C80.6435 148.68 79.5765 147.422 78.8265 145.779C78.0765 144.136 77.7049 142.166 77.7117 139.868C77.7185 137.563 78.0935 135.606 78.8367 133.997C79.5867 132.388 80.6503 131.164 82.0276 130.326C83.4117 129.487 85.0549 129.068 86.9572 129.068C88.8594 129.068 90.5026 129.491 91.8867 130.336C93.2708 131.175 94.3378 132.399 95.0878 134.008C95.8378 135.617 96.2094 137.57 96.2026 139.868C96.2026 142.179 95.8276 144.156 95.0776 145.8C94.3276 147.443 93.2605 148.701 91.8765 149.574C90.4992 150.439 88.8594 150.872 86.9572 150.872ZM86.9572 146.25C87.939 146.25 88.7435 145.738 89.3708 144.716C90.0049 143.686 90.3185 142.07 90.3117 139.868C90.3117 138.429 90.1685 137.253 89.8821 136.339C89.5958 135.426 89.2003 134.751 88.6958 134.314C88.1912 133.871 87.6117 133.65 86.9572 133.65C85.9753 133.65 85.1742 134.147 84.5537 135.143C83.9333 136.138 83.6162 137.713 83.6026 139.868C83.5958 141.334 83.7356 142.541 84.0219 143.488C84.3083 144.429 84.7037 145.125 85.2083 145.575C85.7197 146.025 86.3026 146.25 86.9572 146.25Z" fill="url(#paint7_linear_713_4)"/>
<path fill-rule="evenodd" clip-rule="evenodd" d="M43.4003 76.9702C50.3476 80.4439 60.4491 82.8002 72.0001 82.8002C83.5511 82.8002 93.6526 80.4439 100.6 76.9702C107.978 73.2812 109.8 69.517 109.8 67.5002C109.8 65.4834 107.978 61.7192 100.6 58.0302C93.6526 54.5565 83.5511 52.2002 72.0001 52.2002C60.4491 52.2002 50.3476 54.5565 43.4003 58.0302C36.0223 61.7192 34.2002 65.4834 34.2002 67.5002C34.2002 69.517 36.0223 73.2812 43.4003 76.9702ZM27.0002 67.5002C27.0002 79.9266 47.1473 90.0002 72.0001 90.0002C96.8529 90.0002 117 79.9266 117 67.5002C117 55.0738 96.8529 45.0002 72.0001 45.0002C47.1473 45.0002 27.0002 55.0738 27.0002 67.5002Z" fill="url(#paint8_linear_713_4)"/>
<defs>
<linearGradient id="paint0_linear_713_4" x1="71.9998" y1="0" x2="71.9998" y2="180" gradientUnits="userSpaceOnUse">
<stop stop-color="#00D1FF"/>
<stop offset="0.0001" stop-color="#00D1FF"/>
<stop offset="1" stop-color="#C31FE4"/>
</linearGradient>
<linearGradient id="paint1_linear_713_4" x1="168.3" y1="14.3999" x2="168.3" y2="165.6" gradientUnits="userSpaceOnUse">
<stop stop-color="#00D1FF"/>
<stop offset="0.0001" stop-color="#00D1FF"/>
<stop offset="1" stop-color="#C31FE4"/>
</linearGradient>
<linearGradient id="paint2_linear_713_4" x1="150.3" y1="7.19995" x2="150.3" y2="172.8" gradientUnits="userSpaceOnUse">
<stop stop-color="#00D1FF"/>
<stop offset="0.0001" stop-color="#00D1FF"/>
<stop offset="1" stop-color="#C31FE4"/>
</linearGradient>
<linearGradient id="paint3_linear_713_4" x1="71.9999" y1="22.5" x2="71.9999" y2="112.5" gradientUnits="userSpaceOnUse">
<stop stop-color="#00D1FF"/>
<stop offset="0.0001" stop-color="#00D1FF"/>
<stop offset="1" stop-color="#C31FE4"/>
</linearGradient>
<linearGradient id="paint4_linear_713_4" x1="72" y1="22.5" x2="72" y2="112.5" gradientUnits="userSpaceOnUse">
<stop stop-color="#00D1FF"/>
<stop offset="0.0001" stop-color="#00D1FF"/>
<stop offset="1" stop-color="#C31FE4"/>
</linearGradient>
<linearGradient id="paint5_linear_713_4" x1="73.3831" y1="129.068" x2="73.3831" y2="150.872" gradientUnits="userSpaceOnUse">
<stop stop-color="#00D1FF"/>
<stop offset="0.0001" stop-color="#00D1FF"/>
<stop offset="1" stop-color="#C31FE4"/>
</linearGradient>
<linearGradient id="paint6_linear_713_4" x1="73.3831" y1="129.068" x2="73.3831" y2="150.872" gradientUnits="userSpaceOnUse">
<stop stop-color="#00D1FF"/>
<stop offset="0.0001" stop-color="#00D1FF"/>
<stop offset="1" stop-color="#C31FE4"/>
</linearGradient>
<linearGradient id="paint7_linear_713_4" x1="73.3831" y1="129.068" x2="73.3831" y2="150.872" gradientUnits="userSpaceOnUse">
<stop stop-color="#00D1FF"/>
<stop offset="0.0001" stop-color="#00D1FF"/>
<stop offset="1" stop-color="#C31FE4"/>
</linearGradient>
<linearGradient id="paint8_linear_713_4" x1="72" y1="23" x2="72" y2="112.5" gradientUnits="userSpaceOnUse">
<stop stop-color="#00D1FF"/>
<stop offset="0.0001" stop-color="#00D1FF"/>
<stop offset="1" stop-color="#C31FE4"/>
</linearGradient>
</defs>
</svg>
