<svg width="46" height="46" fill="none" xmlns="http://www.w3.org/2000/svg"><g clip-path="url(#clip0_188_9)"><circle cx="23" cy="23" r="22" stroke="#908D84" stroke-width="2"/><path d="M19.88 28.872l-.048-.912c0-1.376.352-2.56 1.056-3.552a22.22 22.22 0 012.304-2.832 34.467 34.467 0 002.352-2.592 4.578 4.578 0 001.056-2.976c0-1.216-.384-2.192-1.152-2.928-.768-.736-1.904-1.104-3.408-1.104-.928 0-1.856.112-2.784.336-.896.224-1.808.592-2.736 1.104l-1.104-3.072c.96-.544 2.048-.96 3.264-1.248 1.216-.32 2.512-.48 3.888-.48 1.632 0 2.96.224 3.984.672 1.056.448 1.888 1.024 2.496 1.728a5.435 5.435 0 011.248 2.256c.256.832.384 1.632.384 2.4 0 .96-.192 1.824-.576 2.592-.352.736-.8 1.44-1.344 2.112a20.034 20.034 0 01-1.776 1.92 20.034 20.034 0 00-1.776 1.92 10.49 10.49 0 00-1.392 2.112c-.352.768-.528 1.616-.528 2.544H19.88zm2.064 10.704c-.896 0-1.664-.288-2.304-.864-.608-.608-.912-1.408-.912-2.4s.304-1.776.912-2.352c.64-.608 1.408-.912 2.304-.912.864 0 1.616.304 2.256.912.64.576.96 1.36.96 2.352 0 .992-.32 1.792-.96 2.4a3.264 3.264 0 01-2.256.864z" fill="#908D84"/></g><defs><clipPath id="clip0_188_9"><path fill="#fff" d="M0 0h46v46H0z"/></clipPath></defs></svg>