<svg width="180" height="180" fill="none" xmlns="http://www.w3.org/2000/svg"><path fill-rule="evenodd" clip-rule="evenodd" d="M135 7.2H9A1.8 1.8 0 007.2 9v162a1.8 1.8 0 001.8 1.8h126a1.8 1.8 0 001.8-1.8V9a1.8 1.8 0 00-1.8-1.8zM9 0a9 9 0 00-9 9v162a9 9 0 009 9h126a9 9 0 009-9V9a9 9 0 00-9-9H9z" fill="url(#paint0_linear_713_4)"/><path fill-rule="evenodd" clip-rule="evenodd" d="M171 21.6h-7.2v136.8h7.2a1.8 1.8 0 001.8-1.8V23.4a1.8 1.8 0 00-1.8-1.8zm-14.4-7.2v151.2H171a9 9 0 009-9V23.4a9 9 0 00-9-9h-14.4z" fill="url(#paint1_linear_713_4)"/><path fill-rule="evenodd" clip-rule="evenodd" d="M154.8 14.4H144v151.2h10.8a1.8 1.8 0 001.8-1.8V16.2a1.8 1.8 0 00-1.8-1.8zm-18-7.2v165.6h18a9 9 0 009-9V16.2a9 9 0 00-9-9h-18z" fill="url(#paint2_linear_713_4)"/><path fill-rule="evenodd" clip-rule="evenodd" d="M72 105.3c20.876 0 37.8-16.924 37.8-37.8 0-20.876-16.924-37.8-37.8-37.8-20.876 0-37.8 16.924-37.8 37.8 0 20.876 16.924 37.8 37.8 37.8zm0 7.2c24.853 0 45-20.147 45-45s-20.147-45-45-45-45 20.147-45 45 20.147 45 45 45z" fill="url(#paint3_linear_713_4)"/><path fill-rule="evenodd" clip-rule="evenodd" d="M81.47 96.1c3.474-6.948 5.83-17.05 5.83-28.6 0-11.551-2.356-21.653-5.83-28.6-3.689-7.378-7.453-9.2-9.47-9.2-2.017 0-5.781 1.822-9.47 9.2-3.474 6.947-5.83 17.049-5.83 28.6 0 11.55 2.356 21.652 5.83 28.6 3.689 7.378 7.453 9.2 9.47 9.2 2.017 0 5.781-1.822 9.47-9.2zM72 112.5c12.426 0 22.5-20.147 22.5-45s-10.074-45-22.5-45-22.5 20.147-22.5 45 10.074 45 22.5 45z" fill="url(#paint4_linear_713_4)"/><path d="M59.073 150.586c-1.65 0-3.116-.283-4.398-.849-1.275-.573-2.277-1.36-3.007-2.362-.73-1.003-1.098-2.155-1.105-3.457h5.728c.007.402.13.763.368 1.084.245.314.58.559 1.002.736.423.178.907.266 1.453.266.525 0 .988-.092 1.39-.276a2.28 2.28 0 00.941-.787c.225-.335.334-.716.328-1.146a1.687 1.687 0 00-.39-1.125c-.258-.327-.623-.583-1.093-.767-.47-.184-1.013-.276-1.627-.276h-2.127V137.7h2.127c.566 0 1.064-.092 1.494-.276.436-.185.774-.44 1.012-.768a1.77 1.77 0 00.358-1.125 1.881 1.881 0 00-.297-1.084 2.072 2.072 0 00-.859-.736c-.361-.177-.78-.266-1.258-.266-.518 0-.981.092-1.39.276-.403.184-.72.44-.952.767a1.958 1.958 0 00-.358 1.125h-5.44c.006-1.282.358-2.413 1.053-3.395.702-.982 1.664-1.752 2.884-2.311 1.22-.56 2.622-.839 4.204-.839 1.547 0 2.914.262 4.1.787 1.194.525 2.124 1.248 2.793 2.169.675.913 1.009 1.96 1.002 3.139.013 1.173-.389 2.134-1.207 2.884-.811.75-1.84 1.194-3.089 1.33v.164c1.691.184 2.963.702 3.815 1.554.852.846 1.272 1.909 1.258 3.191.007 1.227-.361 2.315-1.104 3.263-.737.947-1.763 1.69-3.079 2.229-1.309.539-2.82.808-4.53.808z" fill="url(#paint5_linear_713_4)"/><path d="M72.872 150.627c-.791 0-1.47-.276-2.036-.828a2.739 2.739 0 01-.828-2.036 2.667 2.667 0 01.828-1.994 2.812 2.812 0 012.036-.828c.75 0 1.411.276 1.984.828.58.552.873 1.217.88 1.994a2.758 2.758 0 01-.42 1.453 3.099 3.099 0 01-1.043 1.033 2.72 2.72 0 01-1.401.378z" fill="url(#paint6_linear_713_4)"/><path d="M86.957 150.872c-1.902-.006-3.545-.446-4.93-1.319-1.383-.873-2.45-2.131-3.2-3.774-.75-1.643-1.122-3.613-1.115-5.911.007-2.305.382-4.262 1.125-5.871.75-1.609 1.813-2.833 3.19-3.671 1.385-.839 3.028-1.258 4.93-1.258 1.902 0 3.546.423 4.93 1.268 1.384.839 2.45 2.063 3.2 3.672s1.122 3.562 1.116 5.86c0 2.311-.375 4.288-1.125 5.932-.75 1.643-1.818 2.901-3.202 3.774-1.377.865-3.017 1.298-4.919 1.298zm0-4.622c.982 0 1.787-.512 2.414-1.534.634-1.03.948-2.646.94-4.848 0-1.439-.143-2.615-.429-3.529-.286-.913-.682-1.588-1.186-2.025a2.558 2.558 0 00-1.739-.664c-.982 0-1.783.497-2.403 1.493-.62.995-.938 2.57-.951 4.725-.007 1.466.133 2.673.419 3.62.286.941.682 1.637 1.186 2.087.512.45 1.095.675 1.75.675z" fill="url(#paint7_linear_713_4)"/><path fill-rule="evenodd" clip-rule="evenodd" d="M43.4 76.97c6.948 3.474 17.05 5.83 28.6 5.83 11.551 0 21.653-2.356 28.6-5.83 7.378-3.689 9.2-7.453 9.2-9.47 0-2.017-1.822-5.78-9.2-9.47-6.947-3.474-17.049-5.83-28.6-5.83-11.55 0-21.652 2.356-28.6 5.83-7.378 3.69-9.2 7.453-9.2 9.47 0 2.017 1.822 5.781 9.2 9.47zM27 67.5C27 79.927 47.147 90 72 90s45-10.073 45-22.5C117 55.074 96.853 45 72 45S27 55.074 27 67.5z" fill="url(#paint8_linear_713_4)"/><defs><linearGradient id="paint0_linear_713_4" x1="72" y1="0" x2="72" y2="180" gradientUnits="userSpaceOnUse"><stop stop-color="#00D1FF"/><stop offset="0" stop-color="#00D1FF"/><stop offset="1" stop-color="#C31FE4"/></linearGradient><linearGradient id="paint1_linear_713_4" x1="168.3" y1="14.4" x2="168.3" y2="165.6" gradientUnits="userSpaceOnUse"><stop stop-color="#00D1FF"/><stop offset="0" stop-color="#00D1FF"/><stop offset="1" stop-color="#C31FE4"/></linearGradient><linearGradient id="paint2_linear_713_4" x1="150.3" y1="7.2" x2="150.3" y2="172.8" gradientUnits="userSpaceOnUse"><stop stop-color="#00D1FF"/><stop offset="0" stop-color="#00D1FF"/><stop offset="1" stop-color="#C31FE4"/></linearGradient><linearGradient id="paint3_linear_713_4" x1="72" y1="22.5" x2="72" y2="112.5" gradientUnits="userSpaceOnUse"><stop stop-color="#00D1FF"/><stop offset="0" stop-color="#00D1FF"/><stop offset="1" stop-color="#C31FE4"/></linearGradient><linearGradient id="paint4_linear_713_4" x1="72" y1="22.5" x2="72" y2="112.5" gradientUnits="userSpaceOnUse"><stop stop-color="#00D1FF"/><stop offset="0" stop-color="#00D1FF"/><stop offset="1" stop-color="#C31FE4"/></linearGradient><linearGradient id="paint5_linear_713_4" x1="73.383" y1="129.068" x2="73.383" y2="150.872" gradientUnits="userSpaceOnUse"><stop stop-color="#00D1FF"/><stop offset="0" stop-color="#00D1FF"/><stop offset="1" stop-color="#C31FE4"/></linearGradient><linearGradient id="paint6_linear_713_4" x1="73.383" y1="129.068" x2="73.383" y2="150.872" gradientUnits="userSpaceOnUse"><stop stop-color="#00D1FF"/><stop offset="0" stop-color="#00D1FF"/><stop offset="1" stop-color="#C31FE4"/></linearGradient><linearGradient id="paint7_linear_713_4" x1="73.383" y1="129.068" x2="73.383" y2="150.872" gradientUnits="userSpaceOnUse"><stop stop-color="#00D1FF"/><stop offset="0" stop-color="#00D1FF"/><stop offset="1" stop-color="#C31FE4"/></linearGradient><linearGradient id="paint8_linear_713_4" x1="72" y1="23" x2="72" y2="112.5" gradientUnits="userSpaceOnUse"><stop stop-color="#00D1FF"/><stop offset="0" stop-color="#00D1FF"/><stop offset="1" stop-color="#C31FE4"/></linearGradient></defs></svg>